<svg width="558" height="558" viewBox="0 0 558 558" fill="none" xmlns="http://www.w3.org/2000/svg">
<path d="M120.193 338.148V369.954" stroke="#2D255E" stroke-width="6" stroke-miterlimit="10" stroke-linecap="round" stroke-linejoin="round"/>
<path d="M130.684 339.152H127.336C120.751 339.152 115.395 333.796 115.395 327.211V299.758C115.395 293.173 120.751 287.816 127.336 287.816H130.684C137.268 287.816 142.625 293.173 142.625 299.758V327.211C142.681 333.796 137.324 339.152 130.684 339.152Z" fill="#14A56A"/>
<path d="M130.684 339.152H127.336C120.751 339.152 115.395 333.796 115.395 327.211V299.758C115.395 293.173 120.751 287.816 127.336 287.816H130.684C137.268 287.816 142.625 293.173 142.625 299.758V327.211C142.681 333.796 137.324 339.152 130.684 339.152Z" stroke="#2D255E" stroke-width="6" stroke-miterlimit="10" stroke-linecap="round" stroke-linejoin="round"/>
<path d="M111.154 349.252L112.828 357.734L120.193 360.524" stroke="#2D255E" stroke-width="6" stroke-miterlimit="10" stroke-linecap="round" stroke-linejoin="round"/>
<path d="M107.638 350.647C102.226 350.647 97.8174 346.239 97.8174 340.826V326.263C97.8174 320.85 102.226 316.442 107.638 316.442C113.051 316.442 117.459 320.85 117.459 326.263V340.826C117.459 346.239 113.051 350.647 107.638 350.647Z" fill="#12B075"/>
<path d="M107.638 350.647C102.226 350.647 97.8174 346.239 97.8174 340.826V326.263C97.8174 320.85 102.226 316.442 107.638 316.442C113.051 316.442 117.459 320.85 117.459 326.263V340.826C117.459 346.239 113.051 350.647 107.638 350.647Z" stroke="#2D255E" stroke-width="6" stroke-miterlimit="10" stroke-linecap="round" stroke-linejoin="round"/>
<path d="M132.916 401.537H107.527L104.123 368.336H136.32L132.916 401.537Z" fill="#69351F"/>
<path d="M126.666 368.336L123.207 401.537H132.916L136.32 368.336H126.666Z" fill="#632D1B"/>
<path d="M135.148 375.255H123.095V379.886H135.148V375.255Z" fill="#562314"/>
<path d="M115.673 383.402H105.406V388.033H115.673V383.402Z" fill="#562314"/>
<path d="M133.753 390.656H119.635V395.287H133.753V390.656Z" fill="#562314"/>
<path d="M132.916 401.537H107.527L104.123 368.336H136.32L132.916 401.537Z" stroke="#2D255E" stroke-width="6" stroke-miterlimit="10" stroke-linecap="round" stroke-linejoin="round"/>
<path d="M120.807 357.566L128.731 353.214V313.484" stroke="#2D255E" stroke-width="6" stroke-miterlimit="10" stroke-linecap="round" stroke-linejoin="round"/>
<path d="M129.121 325.705L135.147 320.85" stroke="#2D255E" stroke-width="6" stroke-miterlimit="10" stroke-linecap="round" stroke-linejoin="round"/>
<path opacity="0.38" d="M122.035 308.686L124.769 313.484" stroke="#006837" stroke-width="6" stroke-miterlimit="10" stroke-linecap="round" stroke-linejoin="round"/>
<path opacity="0.38" d="M124.322 298.139L127.056 302.882" stroke="#006837" stroke-width="6" stroke-miterlimit="10" stroke-linecap="round" stroke-linejoin="round"/>
<path d="M130.739 297.247L133.473 301.99" stroke="#39D188" stroke-width="6" stroke-miterlimit="10" stroke-linecap="round" stroke-linejoin="round"/>
<path opacity="0.38" d="M105.797 335.525L107.471 338.371" stroke="#006837" stroke-width="6" stroke-miterlimit="10" stroke-linecap="round" stroke-linejoin="round"/>
<path d="M106.746 327.658L108.475 330.559" stroke="#39D188" stroke-width="6" stroke-miterlimit="10" stroke-linecap="round" stroke-linejoin="round"/>
<path d="M438.532 216.95H406.168L396.626 163.382H426.256L438.532 216.95Z" fill="white"/>
<path d="M406.168 216.95H373.804L366.997 163.382H396.626L406.168 216.95Z" fill="#F5A623"/>
<path d="M373.804 216.95H341.44L337.367 163.382H366.997L373.804 216.95Z" fill="white"/>
<path d="M341.44 216.95H309.076L307.737 163.382H337.367L341.44 216.95Z" fill="#F5A623"/>
<path d="M309.076 216.95H276.712L278.107 163.382H307.737L309.076 216.95Z" fill="white"/>
<path d="M276.712 216.95H244.348L248.477 163.382H278.107L276.712 216.95Z" fill="#F5A623"/>
<path d="M244.348 216.95H211.984L218.792 163.382H248.478L244.348 216.95Z" fill="white"/>
<path d="M211.984 216.95H179.62L189.162 163.382H218.792L211.984 216.95Z" fill="#F5A623"/>
<path d="M179.62 216.95H147.256L159.532 163.382H189.162L179.62 216.95Z" fill="white"/>
<path d="M253.834 237.262H159.532V368.95H253.834V237.262Z" fill="#F5969C"/>
<path opacity="0.18" d="M239.047 342.166H174.319V345.569H239.047V342.166Z" fill="#282828" stroke="#282828" stroke-width="6" stroke-miterlimit="10" stroke-linecap="round" stroke-linejoin="round"/>
<path d="M249.314 270.239H235.197V276.768H249.314V270.239Z" fill="#DF747C"/>
<path d="M168.962 258.856H159.532V265.385H168.962V258.856Z" fill="#DF747C"/>
<path d="M254.895 278.442H244.851V284.971H254.895V278.442Z" fill="#DF747C"/>
<path d="M252.885 347.801H245.799V354.33H252.885V347.801Z" fill="#DF747C"/>
<path d="M198.536 347.801H184.419V354.33H198.536V347.801Z" fill="#DF747C"/>
<path d="M190.724 356.004H176.607V362.533H190.724V356.004Z" fill="#DF747C"/>
<path d="M254.392 237.262H159.532V368.95H254.392V237.262Z" stroke="#2D255E" stroke-width="6" stroke-miterlimit="10" stroke-linecap="round" stroke-linejoin="round"/>
<path d="M235.699 241.726H177.667V337.702H235.699V241.726Z" fill="#66CDFD"/>
<path d="M215.053 332.233H193.682C192.845 332.233 192.175 331.564 192.175 330.727V330.057C192.175 329.22 192.845 328.55 193.682 328.55H215.053C215.89 328.55 216.56 329.22 216.56 330.057V330.727C216.616 331.564 215.89 332.233 215.053 332.233Z" fill="#3297D9"/>
<path d="M208.971 331.564H199.875V338.148H208.971V331.564Z" fill="#3297D9"/>
<path d="M225.097 338.315H220.633V317.223C220.633 315.995 221.638 314.991 222.865 314.991C224.093 314.991 225.097 315.995 225.097 317.223V338.315Z" fill="#3297D9"/>
<path d="M188.772 338.315H184.308V317.223C184.308 315.995 185.312 314.991 186.54 314.991C187.767 314.991 188.772 315.995 188.772 317.223V338.315Z" fill="#3297D9"/>
<path opacity="0.3" d="M233.579 337.702L235.699 334.688V294.233L205.288 337.702H233.579Z" fill="white"/>
<path opacity="0.3" d="M201.438 337.702L235.699 288.821V279.67L195.077 337.702H201.438Z" fill="white"/>
<path opacity="0.3" d="M190.055 337.702L235.699 272.527V267.952L186.874 337.702H190.055Z" fill="white"/>
<path d="M235.699 241.726H177.667V337.702H235.699V241.726Z" stroke="#2D255E" stroke-width="6" stroke-miterlimit="10" stroke-linecap="round" stroke-linejoin="round"/>
<path d="M239.047 337.702H174.319V344.398H239.047V337.702Z" fill="#D49D7F"/>
<path d="M239.047 337.702H174.319V344.398H239.047V337.702Z" stroke="#2D255E" stroke-width="6" stroke-miterlimit="10" stroke-linecap="round" stroke-linejoin="round"/>
<path d="M331.377 402.45V239.179H254.373V402.45H331.377Z" fill="#D49D7F"/>
<path d="M331.377 402.45V239.179H254.373V402.45H331.377Z" stroke="#2D255E" stroke-width="6" stroke-miterlimit="10" stroke-linecap="round" stroke-linejoin="round"/>
<path d="M323.026 248.31H262.762V361.417H323.026V248.31Z" fill="#66CDFD"/>
<path opacity="0.3" d="M323.584 361.975V308.183L292.56 361.975H323.584Z" fill="white"/>
<path opacity="0.3" d="M288.877 361.417L323.026 302.269V283.743L278.219 361.417H288.877Z" fill="white"/>
<path opacity="0.3" d="M273.253 361.417L323.026 275.15V269.123L269.793 361.417H273.253Z" fill="white"/>
<path d="M323.026 248.31H262.762V361.417H323.026V248.31Z" stroke="#2D255E" stroke-width="6" stroke-miterlimit="10" stroke-linecap="round" stroke-linejoin="round"/>
<path d="M258.745 368.95H148.93V402.43H258.745V368.95Z" fill="#DB6B7B"/>
<path d="M153.617 368.95H148.93V402.43H153.617V368.95Z" fill="#CE5569"/>
<path d="M257.74 368.95H255.006V402.43H257.74V368.95Z" fill="#CE5569"/>
<path d="M258.745 368.95H148.93V402.43H258.745V368.95Z" stroke="#2D255E" stroke-width="6" stroke-miterlimit="10" stroke-linecap="round" stroke-linejoin="round"/>
<path d="M331.654 368.997H425.956V237.309H331.654V368.997Z" fill="#F5969C"/>
<path d="M418.221 356.004H404.104V362.533H418.221V356.004Z" fill="#DF747C"/>
<path d="M345.737 356.004H331.62V362.533H345.737V356.004Z" fill="#DF747C"/>
<path d="M409.739 347.801H395.622V354.33H409.739V347.801Z" fill="#DF747C"/>
<path d="M350.089 256.01H341.44V262.539H350.089V256.01Z" fill="#DF747C"/>
<path d="M339.711 319.288H331.062V325.816H339.711V319.288Z" fill="#DF747C"/>
<path d="M331.097 368.997H425.957V237.309H331.097V368.997Z" stroke="#2D255E" stroke-width="6" stroke-miterlimit="10" stroke-linecap="round" stroke-linejoin="round"/>
<path d="M407.786 241.726H349.754V337.702H407.786V241.726Z" fill="#66CDFD"/>
<path d="M370.4 332.233H391.772C392.609 332.233 393.278 331.564 393.278 330.727V330.057C393.278 329.22 392.609 328.55 391.772 328.55H370.4C369.563 328.55 368.894 329.22 368.894 330.057V330.727C368.894 331.564 369.563 332.233 370.4 332.233Z" fill="#3297D9"/>
<path d="M376.555 338.161H385.651V331.576H376.555V338.161Z" fill="#3297D9"/>
<path d="M360.412 338.315H364.876V317.223C364.876 315.995 363.872 314.991 362.644 314.991C361.417 314.991 360.412 315.995 360.412 317.223V338.315Z" fill="#3297D9"/>
<path d="M396.682 338.315H401.146V317.223C401.146 315.995 400.142 314.991 398.914 314.991C397.687 314.991 396.682 315.995 396.682 317.223V338.315Z" fill="#3297D9"/>
<path opacity="0.3" d="M405.722 337.702L407.786 334.688V294.233L377.375 337.702H405.722Z" fill="white"/>
<path opacity="0.3" d="M373.581 337.702L407.786 288.821V279.67L367.164 337.702H373.581Z" fill="white"/>
<path opacity="0.3" d="M362.142 337.702L407.786 272.527V267.952L358.961 337.702H362.142Z" fill="white"/>
<path d="M407.786 241.726H349.754V337.702H407.786V241.726Z" stroke="#2D255E" stroke-width="6" stroke-miterlimit="10" stroke-linecap="round" stroke-linejoin="round"/>
<path opacity="0.18" d="M411.134 342.166H346.406V345.569H411.134V342.166Z" fill="#282828" stroke="#282828" stroke-width="6" stroke-miterlimit="10" stroke-linecap="round" stroke-linejoin="round"/>
<path d="M346.441 344.406H411.169V337.71H346.441V344.406Z" fill="#D49D7F"/>
<path d="M346.441 344.406H411.169V337.71H346.441V344.406Z" stroke="#2D255E" stroke-width="6" stroke-miterlimit="10" stroke-linecap="round" stroke-linejoin="round"/>
<path d="M327.6 402.477H436.521V368.997H327.6V402.477Z" fill="#DB6B7B"/>
<path d="M331.675 368.95H327.658V402.43H331.675V368.95Z" fill="#CE5569"/>
<path d="M327.6 402.477H436.521V368.997H327.6V402.477Z" stroke="#2D255E" stroke-width="6" stroke-miterlimit="10" stroke-linecap="round" stroke-linejoin="round"/>
<path d="M273.587 327.546C272.192 327.546 271.076 326.43 271.076 325.035V298.084C271.076 296.689 272.192 295.573 273.587 295.573C274.982 295.573 276.098 296.689 276.098 298.084V325.035C276.098 326.43 274.982 327.546 273.587 327.546Z" fill="#2D255E"/>
<path opacity="0.18" d="M406.168 220.298H373.804H341.44H309.076H276.712H244.348H211.984H179.62H159.532V254.392C160.76 254.727 162.099 254.894 163.438 254.894C172.366 254.894 179.62 247.64 179.62 238.712C179.62 247.64 186.874 254.894 195.802 254.894C204.73 254.894 211.984 247.64 211.984 238.712C211.984 247.64 219.238 254.894 228.166 254.894C237.094 254.894 244.348 247.64 244.348 238.712C244.348 247.64 251.602 254.894 260.53 254.894C269.458 254.894 276.712 247.64 276.712 238.712C276.712 247.64 283.966 254.894 292.894 254.894C301.822 254.894 309.076 247.64 309.076 238.712C309.076 247.64 316.33 254.894 325.258 254.894C334.186 254.894 341.44 247.64 341.44 238.712C341.44 247.64 348.694 254.894 357.622 254.894C366.55 254.894 373.804 247.64 373.804 238.712C373.804 247.64 381.058 254.894 389.986 254.894C398.914 254.894 406.168 247.64 406.168 238.712C406.168 247.64 413.422 254.894 422.35 254.894C423.578 254.894 424.805 254.727 425.921 254.504V220.298H406.168Z" fill="#282828" stroke="#282828" stroke-width="6" stroke-miterlimit="10" stroke-linecap="round" stroke-linejoin="round"/>
<path d="M389.986 251.546C381.058 251.546 373.804 244.292 373.804 235.364V216.95H406.168V235.364C406.168 244.292 398.914 251.546 389.986 251.546Z" fill="#D68821"/>
<path d="M357.622 251.546C348.694 251.546 341.44 244.292 341.44 235.364V216.95H373.804V235.364C373.804 244.292 366.55 251.546 357.622 251.546Z" fill="#D6D6D6"/>
<path d="M325.258 251.546C316.33 251.546 309.076 244.292 309.076 235.364V216.95H341.44V235.364C341.44 244.292 334.186 251.546 325.258 251.546Z" fill="#D68821"/>
<path d="M292.894 251.546C283.966 251.546 276.712 244.292 276.712 235.364V216.95H309.076V235.364C309.076 244.292 301.822 251.546 292.894 251.546Z" fill="#D6D6D6"/>
<path d="M260.53 251.546C251.602 251.546 244.348 244.292 244.348 235.364V216.95H276.712V235.364C276.712 244.292 269.458 251.546 260.53 251.546Z" fill="#D68821"/>
<path d="M228.166 251.546C219.238 251.546 211.984 244.292 211.984 235.364V216.95H244.348V235.364C244.348 244.292 237.094 251.546 228.166 251.546Z" fill="#D6D6D6"/>
<path d="M195.802 251.546C186.874 251.546 179.62 244.292 179.62 235.364V216.95H211.984V235.364C211.984 244.292 204.73 251.546 195.802 251.546Z" fill="#D68821"/>
<path d="M163.438 251.546C154.51 251.546 147.256 244.292 147.256 235.364V216.95H179.62V235.364C179.62 244.292 172.366 251.546 163.438 251.546Z" fill="#D6D6D6"/>
<path d="M389.986 251.546C381.058 251.546 373.804 244.292 373.804 235.364V216.95H406.168V235.364C406.168 244.292 398.914 251.546 389.986 251.546Z" stroke="#2D255E" stroke-width="6" stroke-miterlimit="10" stroke-linecap="round" stroke-linejoin="round"/>
<path d="M357.622 251.546C348.694 251.546 341.44 244.292 341.44 235.364V216.95H373.804V235.364C373.804 244.292 366.55 251.546 357.622 251.546Z" stroke="#2D255E" stroke-width="6" stroke-miterlimit="10" stroke-linecap="round" stroke-linejoin="round"/>
<path d="M325.258 251.546C316.33 251.546 309.076 244.292 309.076 235.364V216.95H341.44V235.364C341.44 244.292 334.186 251.546 325.258 251.546Z" stroke="#2D255E" stroke-width="6" stroke-miterlimit="10" stroke-linecap="round" stroke-linejoin="round"/>
<path d="M292.894 251.546C283.966 251.546 276.712 244.292 276.712 235.364V216.95H309.076V235.364C309.076 244.292 301.822 251.546 292.894 251.546Z" stroke="#2D255E" stroke-width="6" stroke-miterlimit="10" stroke-linecap="round" stroke-linejoin="round"/>
<path d="M260.53 251.546C251.602 251.546 244.348 244.292 244.348 235.364V216.95H276.712V235.364C276.712 244.292 269.458 251.546 260.53 251.546Z" stroke="#2D255E" stroke-width="6" stroke-miterlimit="10" stroke-linecap="round" stroke-linejoin="round"/>
<path d="M228.166 251.546C219.238 251.546 211.984 244.292 211.984 235.364V216.95H244.348V235.364C244.348 244.292 237.094 251.546 228.166 251.546Z" stroke="#2D255E" stroke-width="6" stroke-miterlimit="10" stroke-linecap="round" stroke-linejoin="round"/>
<path d="M195.802 251.546C186.874 251.546 179.62 244.292 179.62 235.364V216.95H211.984V235.364C211.984 244.292 204.73 251.546 195.802 251.546Z" stroke="#2D255E" stroke-width="6" stroke-miterlimit="10" stroke-linecap="round" stroke-linejoin="round"/>
<path d="M163.438 251.546C154.51 251.546 147.256 244.292 147.256 235.364V216.95H179.62V235.364C179.62 244.292 172.366 251.546 163.438 251.546Z" stroke="#2D255E" stroke-width="6" stroke-miterlimit="10" stroke-linecap="round" stroke-linejoin="round"/>
<path d="M438.532 216.95H406.168L396.626 163.382H426.256L438.532 216.95Z" stroke="#2D255E" stroke-width="6" stroke-miterlimit="10" stroke-linecap="round" stroke-linejoin="round"/>
<path d="M406.168 216.95H373.804L366.997 163.382H396.626L406.168 216.95Z" stroke="#2D255E" stroke-width="6" stroke-miterlimit="10" stroke-linecap="round" stroke-linejoin="round"/>
<path d="M373.804 216.95H341.44L337.367 163.382H366.997L373.804 216.95Z" stroke="#2D255E" stroke-width="6" stroke-miterlimit="10" stroke-linecap="round" stroke-linejoin="round"/>
<path d="M341.44 216.95H309.076L307.737 163.382H337.367L341.44 216.95Z" stroke="#2D255E" stroke-width="6" stroke-miterlimit="10" stroke-linecap="round" stroke-linejoin="round"/>
<path d="M309.076 216.95H276.712L278.107 163.382H307.737L309.076 216.95Z" stroke="#2D255E" stroke-width="6" stroke-miterlimit="10" stroke-linecap="round" stroke-linejoin="round"/>
<path d="M276.712 216.95H244.348L248.477 163.382H278.107L276.712 216.95Z" stroke="#2D255E" stroke-width="6" stroke-miterlimit="10" stroke-linecap="round" stroke-linejoin="round"/>
<path d="M244.348 216.95H211.984L218.792 163.382H248.478L244.348 216.95Z" stroke="#2D255E" stroke-width="6" stroke-miterlimit="10" stroke-linecap="round" stroke-linejoin="round"/>
<path d="M211.984 216.95H179.62L189.162 163.382H218.792L211.984 216.95Z" stroke="#2D255E" stroke-width="6" stroke-miterlimit="10" stroke-linecap="round" stroke-linejoin="round"/>
<path d="M179.62 216.95H147.256L159.532 163.382H189.162L179.62 216.95Z" stroke="#2D255E" stroke-width="6" stroke-miterlimit="10" stroke-linecap="round" stroke-linejoin="round"/>
<path d="M426.256 153.338H159.532V163.382H426.256V153.338Z" fill="#DB6B7B"/>
<path d="M426.256 153.338H159.532V156.798H426.256V153.338Z" fill="#F5969C"/>
<path d="M426.256 153.338H159.532V163.382H426.256V153.338Z" stroke="#2D255E" stroke-width="6" stroke-miterlimit="10" stroke-linecap="round" stroke-linejoin="round"/>
<path d="M309.776 284.382L280.304 290.647L283.239 304.455L312.711 298.19L309.776 284.382Z" fill="#E8E8E8"/>
<path d="M309.776 284.382L280.304 290.647L283.239 304.455L312.711 298.19L309.776 284.382Z" stroke="#2D255E" stroke-width="3" stroke-miterlimit="10" stroke-linecap="round" stroke-linejoin="round"/>
<path d="M286.924 293.787L305.059 289.937C305.784 289.769 306.454 290.216 306.621 290.941L307.179 293.452C307.347 294.178 306.9 294.847 306.175 295.015L288.04 298.865C287.314 299.032 286.645 298.586 286.477 297.86L285.919 295.349C285.752 294.624 286.198 293.954 286.924 293.787Z" fill="#D3D3D3"/>
<path d="M289.49 288.095L294.122 274.536L299.757 285.529" stroke="#2D255E" stroke-width="2" stroke-miterlimit="10" stroke-linecap="round" stroke-linejoin="round"/>
<path d="M294.122 276.935C295.046 276.935 295.796 276.186 295.796 275.261C295.796 274.337 295.046 273.587 294.122 273.587C293.197 273.587 292.448 274.337 292.448 275.261C292.448 276.186 293.197 276.935 294.122 276.935Z" fill="#2D255E"/>
<path d="M206.516 356.004H192.398V362.533H206.516V356.004Z" fill="#DF747C"/>
<path d="M422.35 251.546C413.422 251.546 406.168 244.292 406.168 235.364V216.95H438.532V235.364C438.532 244.292 431.278 251.546 422.35 251.546Z" fill="#D6D6D6"/>
<path d="M422.35 251.546C413.422 251.546 406.168 244.292 406.168 235.364V216.95H438.532V235.364C438.532 244.292 431.278 251.546 422.35 251.546Z" stroke="#2D255E" stroke-width="6" stroke-miterlimit="10" stroke-linecap="round" stroke-linejoin="round"/>
<path d="M443.498 315.995H422.294V402.485H443.498V315.995Z" fill="#D6D6D6"/>
<path d="M437.751 315.995H426.981V402.485H437.751V315.995Z" fill="white"/>
<path d="M443.498 315.995H422.294V402.485H443.498V315.995Z" stroke="#2D255E" stroke-width="6" stroke-miterlimit="10" stroke-linecap="round" stroke-linejoin="round"/>
<path d="M434.068 327.658H431.222C429.716 327.658 428.544 326.486 428.544 324.979V317.223H436.747V324.979C436.747 326.43 435.519 327.658 434.068 327.658Z" fill="#2D255E"/>
<path d="M79.6826 402.43H469.278" stroke="#2D255E" stroke-width="8" stroke-miterlimit="10" stroke-linecap="round" stroke-linejoin="round"/>
</svg>
